<svg width="22" height="26" viewBox="0 0 22 26" fill="none" xmlns="http://www.w3.org/2000/svg">
<path d="M1 7.36615H20.0874V20.6984C20.0874 21.6502 19.7093 22.5629 19.0363 23.2359C18.3633 23.9089 17.4505 24.287 16.4988 24.287H4.5886C3.63684 24.287 2.72407 23.9089 2.05108 23.2359C1.37808 22.5629 1 21.6502 1 20.6984V7.36615Z" stroke="black" stroke-width="2" stroke-miterlimit="10"/>
<path d="M6.2998 10.5437V5.2441C6.2998 4.1185 6.74695 3.03899 7.54287 2.24307C8.3388 1.44715 9.4183 1 10.5439 1C11.6695 1 12.749 1.44715 13.5449 2.24307C14.3409 3.03899 14.788 4.1185 14.788 5.2441V10.5437" stroke="black" stroke-width="2" stroke-miterlimit="10"/>
</svg>
