<svg width="32" height="24" viewBox="0 0 32 24" fill="none" xmlns="http://www.w3.org/2000/svg">
<path d="M13.576 8.33333C13.42 8.33822 13.27 8.40422 13.1596 8.51911L9.994 11.7336L8.044 9.75356C7.498 9.17422 6.616 10.0689 7.186 10.6238L9.5656 13.0413C9.802 13.2821 10.186 13.2821 10.4236 13.0413L14.0176 9.39056C14.4136 8.99944 14.122 8.33333 13.5772 8.33333H13.576ZM24.4 16.8889C22.75 16.8889 21.4 18.2639 21.4 19.9444C21.4 21.625 22.75 23 24.4 23C26.05 23 27.4 21.625 27.4 19.9444C27.4 18.2639 26.05 16.8889 24.4 16.8889ZM24.4 18.1111C25.4008 18.1111 26.2 18.9251 26.2 19.9444C26.2 20.9638 25.4008 21.7778 24.4 21.7778C23.3992 21.7778 22.6 20.9638 22.6 19.9444C22.6 18.9251 23.3992 18.1111 24.4 18.1111ZM8.8 16.8889C7.15 16.8889 5.8 18.2639 5.8 19.9444C5.8 21.625 7.15 23 8.8 23C10.45 23 11.8 21.625 11.8 19.9444C11.8 18.2639 10.45 16.8889 8.8 16.8889ZM8.8 18.1111C9.8008 18.1111 10.6 18.9251 10.6 19.9444C10.6 20.9638 9.8008 21.7778 8.8 21.7778C7.7992 21.7778 7 20.9638 7 19.9444C7 18.9251 7.7992 18.1111 8.8 18.1111ZM2.8 1C1.8136 1 1 1.82867 1 2.83333V16.2778C1 17.2824 1.8136 18.1111 2.8 18.1111H5.2C6.0112 18.1233 6.0112 16.8767 5.2 16.8889H2.8C2.4568 16.8889 2.2 16.6273 2.2 16.2778V2.83333C2.2 2.48378 2.4568 2.22222 2.8 2.22222H18.4C18.7432 2.22222 19 2.48378 19 2.83333V16.8889H12.4C11.608 16.8889 11.6224 18.1233 12.4 18.1111H20.8C21.592 18.1111 21.5848 16.8889 20.8 16.8889H20.2V5.88889H25.2724L29.8 13.0951V16.2778C29.8 16.6273 29.5432 16.8889 29.2 16.8889H28C27.2152 16.8889 27.2152 18.1111 28 18.1111H29.2C30.1864 18.1111 31 17.2824 31 16.2778V12.9167C31 12.8006 30.9676 12.6844 30.9064 12.5867L26.1064 4.94778C25.996 4.773 25.8064 4.66667 25.6 4.66667H20.2V2.83333C20.2 1.82867 19.3864 1 18.4 1H2.8Z" fill="black" stroke="black"/>
</svg>
