<svg width="941" height="240" viewBox="0 0 941 240" fill="none" xmlns="http://www.w3.org/2000/svg">
<path d="M939.974 147.24C939.974 153.454 936.781 159.58 930.573 165.56C924.365 171.541 915.182 177.333 903.309 182.866C879.567 193.931 845.18 203.908 802.648 212.292C717.592 229.058 600.067 239.431 470.237 239.431C340.407 239.431 222.882 229.058 137.826 212.292C95.2939 203.908 60.9068 193.931 37.1648 182.866C25.2923 177.333 16.1088 171.541 9.90042 165.56C3.69254 159.58 0.5 153.454 0.5 147.24C0.5 141.026 3.69254 134.899 9.90042 128.92C16.1088 122.939 25.2923 117.147 37.1648 111.614C60.9068 100.549 95.2939 90.5718 137.826 82.1881C222.882 65.4223 340.407 55.049 470.237 55.049C600.067 55.049 717.592 65.4223 802.648 82.1881C845.18 90.5718 879.567 100.549 903.309 111.614C915.182 117.147 924.365 122.939 930.573 128.92C936.781 134.899 939.974 141.026 939.974 147.24Z" stroke="white" stroke-opacity="0.5"/>
<path d="M939.974 147.24C939.974 153.454 936.781 159.58 930.573 165.56C924.365 171.541 915.182 177.333 903.309 182.866C879.567 193.931 845.18 203.908 802.648 212.292C717.592 229.058 600.067 239.431 470.237 239.431C340.407 239.431 222.882 229.058 137.826 212.292C95.2939 203.908 60.9068 193.931 37.1648 182.866C25.2923 177.333 16.1088 171.541 9.90042 165.56C3.69254 159.58 0.5 153.454 0.5 147.24C0.5 141.026 3.69254 134.899 9.90042 128.92C16.1088 122.939 25.2923 117.147 37.1648 111.614C60.9068 100.549 95.2939 90.5718 137.826 82.1881C222.882 65.4223 340.407 55.049 470.237 55.049C600.067 55.049 717.592 65.4223 802.648 82.1881C845.18 90.5718 879.567 100.549 903.309 111.614C915.182 117.147 924.365 122.939 930.573 128.92C936.781 134.899 939.974 141.026 939.974 147.24Z" stroke="url(#paint0_radial_13_5)" stroke-opacity="0.2"/>
<ellipse cx="470.237" cy="147.617" rx="237.379" ry="47.4758" stroke="white" stroke-opacity="0.5"/>
<g filter="url(#filter0_f_13_5)">
<ellipse cx="469.549" cy="145.502" rx="133.549" ry="26.2106" fill="black" fill-opacity="0.68"/>
</g>
<path d="M939.974 120.111C939.974 126.325 936.781 132.451 930.573 138.431C924.365 144.412 915.182 150.204 903.309 155.737C879.567 166.802 845.18 176.779 802.648 185.163C717.592 201.929 600.067 212.302 470.237 212.302C340.407 212.302 222.882 201.929 137.826 185.163C95.2939 176.779 60.9068 166.802 37.1648 155.737C25.2923 150.204 16.1088 144.412 9.90042 138.431C3.69254 132.451 0.5 126.325 0.5 120.111C0.5 113.896 3.69254 107.77 9.90042 101.791C16.1088 95.8102 25.2923 90.0175 37.1648 84.4846C60.9068 73.42 95.2939 63.4428 137.826 55.0591C222.882 38.2933 340.407 27.92 470.237 27.92C600.067 27.92 717.592 38.2933 802.648 55.0591C845.18 63.4428 879.567 73.42 903.309 84.4846C915.182 90.0175 924.365 95.8102 930.573 101.791C936.781 107.77 939.974 113.896 939.974 120.111Z" stroke="white" stroke-opacity="0.35"/>
<path d="M939.974 92.9818C939.974 99.1962 936.781 105.322 930.573 111.302C924.365 117.283 915.182 123.075 903.309 128.608C879.567 139.673 845.18 149.65 802.648 158.034C717.592 174.799 600.067 185.173 470.237 185.173C340.407 185.173 222.882 174.799 137.826 158.034C95.2939 149.65 60.9068 139.673 37.1648 128.608C25.2923 123.075 16.1088 117.283 9.90042 111.302C3.69254 105.322 0.5 99.1962 0.5 92.9818C0.5 86.7674 3.69254 80.6414 9.90042 74.6615C16.1088 68.6811 25.2923 62.8885 37.1648 57.3555C60.9068 46.2909 95.2939 36.3137 137.826 27.93C222.882 11.1642 340.407 0.790894 470.237 0.790894C600.067 0.790894 717.592 11.1642 802.648 27.93C845.18 36.3137 879.567 46.2909 903.309 57.3555C915.182 62.8885 924.365 68.6811 930.573 74.6615C936.781 80.6414 939.974 86.7674 939.974 92.9818Z" stroke="white" stroke-opacity="0.15"/>
<path opacity="0.2" d="M740.254 197.495L688.557 181.208C688.557 181.208 754.538 175.877 758.5 144.565C761.977 117.081 649.025 100.795 649.025 100.795L684.503 92.6522C684.503 92.6522 836.551 114.028 828.442 150.672C821.481 182.124 740.254 197.495 740.254 197.495Z" fill="#ED3A86"/>
<path opacity="0.2" d="M288.468 104.356L249.767 95.1484C249.767 95.1484 151.584 101.714 121.441 138.117C50.4999 223.791 489.5 223.791 489.5 223.791L462.495 208.636C462.495 208.636 119.826 194.997 194.77 133.001C212.085 118.679 288.468 104.356 288.468 104.356Z" fill="#ED3A86"/>
<defs>
<filter id="filter0_f_13_5" x="286" y="69.2909" width="367.099" height="152.421" filterUnits="userSpaceOnUse" color-interpolation-filters="sRGB">
<feFlood flood-opacity="0" result="BackgroundImageFix"/>
<feBlend mode="normal" in="SourceGraphic" in2="BackgroundImageFix" result="shape"/>
<feGaussianBlur stdDeviation="25" result="effect1_foregroundBlur_13_5"/>
</filter>
<radialGradient id="paint0_radial_13_5" cx="0" cy="0" r="1" gradientUnits="userSpaceOnUse" gradientTransform="translate(612.5 134.5) rotate(158.906) scale(293.142 57.7829)">
<stop stop-color="white" stop-opacity="0"/>
<stop offset="1" stop-color="white"/>
</radialGradient>
</defs>
</svg>
