<svg width="358" height="436" viewBox="0 0 358 436" fill="none" xmlns="http://www.w3.org/2000/svg">
<path d="M197.801 12.1428C208.358 5.22724 222.787 0.57679 242.51 0.500942C242.511 0.614132 242.512 0.746507 242.513 0.897353C242.514 1.47579 242.506 2.32573 242.468 3.40701C242.392 5.56977 242.199 8.65694 241.727 12.3474C240.781 19.7315 238.722 29.515 234.269 39.1389C229.817 48.7605 222.98 58.2086 212.484 64.9509C202.072 71.6391 188.02 75.6901 169.04 74.565C169.035 74.4546 169.029 74.3239 169.022 74.1735C169 73.6302 168.977 72.831 168.976 71.8123C168.974 69.7748 169.061 66.8608 169.415 63.3627C170.122 56.3638 171.895 47.0415 176.156 37.7264C180.415 28.4148 187.156 19.1161 197.801 12.1428Z" fill="url(#paint0_linear_13_13)"/>
<path d="M197.801 12.1428C208.358 5.22724 222.787 0.57679 242.51 0.500942C242.511 0.614132 242.512 0.746507 242.513 0.897353C242.514 1.47579 242.506 2.32573 242.468 3.40701C242.392 5.56977 242.199 8.65694 241.727 12.3474C240.781 19.7315 238.722 29.515 234.269 39.1389C229.817 48.7605 222.98 58.2086 212.484 64.9509C202.072 71.6391 188.02 75.6901 169.04 74.565C169.035 74.4546 169.029 74.3239 169.022 74.1735C169 73.6302 168.977 72.831 168.976 71.8123C168.974 69.7748 169.061 66.8608 169.415 63.3627C170.122 56.3638 171.895 47.0415 176.156 37.7264C180.415 28.4148 187.156 19.1161 197.801 12.1428Z" fill="url(#paint1_linear_13_13)"/>
<path d="M197.801 12.1428C208.358 5.22724 222.787 0.57679 242.51 0.500942C242.511 0.614132 242.512 0.746507 242.513 0.897353C242.514 1.47579 242.506 2.32573 242.468 3.40701C242.392 5.56977 242.199 8.65694 241.727 12.3474C240.781 19.7315 238.722 29.515 234.269 39.1389C229.817 48.7605 222.98 58.2086 212.484 64.9509C202.072 71.6391 188.02 75.6901 169.04 74.565C169.035 74.4546 169.029 74.3239 169.022 74.1735C169 73.6302 168.977 72.831 168.976 71.8123C168.974 69.7748 169.061 66.8608 169.415 63.3627C170.122 56.3638 171.895 47.0415 176.156 37.7264C180.415 28.4148 187.156 19.1161 197.801 12.1428Z" stroke="url(#paint2_radial_13_13)"/>
<path d="M3.14712 290.752L2.70401 290.983L3.14711 290.752C1.43397 287.475 0.528657 283.837 0.5 280.137V262.94C0.533943 258.898 1.61877 254.928 3.64899 251.434L3.21669 251.183L3.64902 251.434L71.2163 135.132C73.5415 131.13 76.995 127.918 81.1516 125.893L81.1517 125.893L102.641 115.415L102.642 115.415C105.83 113.854 109.32 113.053 112.857 113.053H221.511L261.614 136.111L257.555 142.763L147.206 145.195L147.143 145.196L147.081 145.214L112.51 154.981L112.323 155.034L112.221 155.199L43.0869 266.939L43.0264 267.036L43.0147 267.151L39.359 303.035L39.3438 303.184L39.4133 303.317L100.693 420.614L58.9348 397.478L3.14712 290.752Z" fill="url(#paint3_linear_13_13)"/>
<path d="M3.14712 290.752L2.70401 290.983L3.14711 290.752C1.43397 287.475 0.528657 283.837 0.5 280.137V262.94C0.533943 258.898 1.61877 254.928 3.64899 251.434L3.21669 251.183L3.64902 251.434L71.2163 135.132C73.5415 131.13 76.995 127.918 81.1516 125.893L81.1517 125.893L102.641 115.415L102.642 115.415C105.83 113.854 109.32 113.053 112.857 113.053H221.511L261.614 136.111L257.555 142.763L147.206 145.195L147.143 145.196L147.081 145.214L112.51 154.981L112.323 155.034L112.221 155.199L43.0869 266.939L43.0264 267.036L43.0147 267.151L39.359 303.035L39.3438 303.184L39.4133 303.317L100.693 420.614L58.9348 397.478L3.14712 290.752Z" fill="url(#paint4_linear_13_13)"/>
<path d="M3.14712 290.752L2.70401 290.983L3.14711 290.752C1.43397 287.475 0.528657 283.837 0.5 280.137V262.94C0.533943 258.898 1.61877 254.928 3.64899 251.434L3.21669 251.183L3.64902 251.434L71.2163 135.132C73.5415 131.13 76.995 127.918 81.1516 125.893L81.1517 125.893L102.641 115.415L102.642 115.415C105.83 113.854 109.32 113.053 112.857 113.053H221.511L261.614 136.111L257.555 142.763L147.206 145.195L147.143 145.196L147.081 145.214L112.51 154.981L112.323 155.034L112.221 155.199L43.0869 266.939L43.0264 267.036L43.0147 267.151L39.359 303.035L39.3438 303.184L39.4133 303.317L100.693 420.614L58.9348 397.478L3.14712 290.752Z" fill="url(#paint5_linear_13_13)" fill-opacity="0.8"/>
<path d="M3.14712 290.752L2.70401 290.983L3.14711 290.752C1.43397 287.475 0.528657 283.837 0.5 280.137V262.94C0.533943 258.898 1.61877 254.928 3.64899 251.434L3.21669 251.183L3.64902 251.434L71.2163 135.132C73.5415 131.13 76.995 127.918 81.1516 125.893L81.1517 125.893L102.641 115.415L102.642 115.415C105.83 113.854 109.32 113.053 112.857 113.053H221.511L261.614 136.111L257.555 142.763L147.206 145.195L147.143 145.196L147.081 145.214L112.51 154.981L112.323 155.034L112.221 155.199L43.0869 266.939L43.0264 267.036L43.0147 267.151L39.359 303.035L39.3438 303.184L39.4133 303.317L100.693 420.614L58.9348 397.478L3.14712 290.752Z" stroke="url(#paint6_radial_13_13)"/>
<path fill-rule="evenodd" clip-rule="evenodd" d="M266.991 229.477C266.991 229.477 286.711 277.262 286.711 277.872C286.711 278.48 334.297 293.122 334.297 293.122L357.477 278.683L302.172 226.019C302.172 226.019 267.601 230.494 266.991 229.477Z" fill="url(#paint7_linear_13_13)"/>
<path fill-rule="evenodd" clip-rule="evenodd" d="M266.991 229.477C266.991 229.477 286.711 277.262 286.711 277.872C286.711 278.48 334.297 293.122 334.297 293.122L357.477 278.683L302.172 226.019C302.172 226.019 267.601 230.494 266.991 229.477Z" fill="url(#paint8_linear_13_13)"/>
<path fill-rule="evenodd" clip-rule="evenodd" d="M194.799 287.024C182.549 299.57 166.821 304.089 159.726 305.626C142.361 309.402 128.14 305.867 121.602 303.803L140.814 347.418L215.545 365.106L266.991 335.517L271.054 279.401L242.691 226.019L209.135 214.43C209.738 216.486 221.581 259.619 194.799 287.024Z" fill="url(#paint9_linear_13_13)"/>
<path fill-rule="evenodd" clip-rule="evenodd" d="M194.799 287.024C182.549 299.57 166.821 304.089 159.726 305.626C142.361 309.402 128.14 305.867 121.602 303.803L140.814 347.418L215.545 365.106L266.991 335.517L271.054 279.401L242.691 226.019L209.135 214.43C209.738 216.486 221.581 259.619 194.799 287.024Z" fill="url(#paint10_linear_13_13)" fill-opacity="0.6"/>
<path d="M356.982 279.326C349.797 281.097 337.808 282.944 324.011 279.577C293.264 272.082 278.972 244.917 276.107 239.468C264.828 218.047 266.018 195.776 270.236 178.521C274.173 162.412 280.757 150.632 282.362 147.91L262.181 136.435H138.877C131.391 136.435 124.054 138.498 117.665 142.392L356.982 279.326ZM356.982 279.326V291.354C356.982 298.701 355.111 305.922 351.554 312.348L299.029 407.23C295.769 413.119 291.104 418.109 285.443 421.75L285.443 421.75L274.68 428.682C274.68 428.682 274.68 428.682 274.68 428.682C268.102 432.914 260.445 435.171 252.628 435.171H136.637C130.56 435.171 124.56 433.81 119.074 431.19L111.471 427.559C111.471 427.559 111.471 427.559 111.471 427.559C104.248 424.104 98.1986 418.605 94.0862 411.74L93.6573 411.997L94.0862 411.74L37.6065 317.498C37.6064 317.498 37.6064 317.498 37.6063 317.498C33.8191 311.173 31.8127 303.93 31.8127 296.557V278.87C31.8127 271.904 33.6005 265.051 37.0109 258.969L37.0111 258.969L89.0975 165.947C92.5205 159.84 97.4559 154.718 103.436 151.067C103.436 151.067 103.436 151.067 103.437 151.067L117.665 142.393L356.982 279.326ZM125.574 286.612C125.574 325.184 156.841 356.456 195.412 356.456C233.985 356.456 265.257 325.184 265.257 286.612C265.257 248.046 233.985 216.774 195.412 216.774C156.841 216.774 125.574 248.046 125.574 286.612Z" fill="white"/>
<path d="M356.982 279.326C349.797 281.097 337.808 282.944 324.011 279.577C293.264 272.082 278.972 244.917 276.107 239.468C264.828 218.047 266.018 195.776 270.236 178.521C274.173 162.412 280.757 150.632 282.362 147.91L262.181 136.435H138.877C131.391 136.435 124.054 138.498 117.665 142.392L356.982 279.326ZM356.982 279.326V291.354C356.982 298.701 355.111 305.922 351.554 312.348L299.029 407.23C295.769 413.119 291.104 418.109 285.443 421.75L285.443 421.75L274.68 428.682C274.68 428.682 274.68 428.682 274.68 428.682C268.102 432.914 260.445 435.171 252.628 435.171H136.637C130.56 435.171 124.56 433.81 119.074 431.19L111.471 427.559C111.471 427.559 111.471 427.559 111.471 427.559C104.248 424.104 98.1986 418.605 94.0862 411.74L93.6573 411.997L94.0862 411.74L37.6065 317.498C37.6064 317.498 37.6064 317.498 37.6063 317.498C33.8191 311.173 31.8127 303.93 31.8127 296.557V278.87C31.8127 271.904 33.6005 265.051 37.0109 258.969L37.0111 258.969L89.0975 165.947C92.5205 159.84 97.4559 154.718 103.436 151.067C103.436 151.067 103.436 151.067 103.437 151.067L117.665 142.393L356.982 279.326ZM125.574 286.612C125.574 325.184 156.841 356.456 195.412 356.456C233.985 356.456 265.257 325.184 265.257 286.612C265.257 248.046 233.985 216.774 195.412 216.774C156.841 216.774 125.574 248.046 125.574 286.612Z" fill="url(#paint11_linear_13_13)"/>
<path d="M356.982 279.326C349.797 281.097 337.808 282.944 324.011 279.577C293.264 272.082 278.972 244.917 276.107 239.468C264.828 218.047 266.018 195.776 270.236 178.521C274.173 162.412 280.757 150.632 282.362 147.91L262.181 136.435H138.877C131.391 136.435 124.054 138.498 117.665 142.392L356.982 279.326ZM356.982 279.326V291.354C356.982 298.701 355.111 305.922 351.554 312.348L299.029 407.23C295.769 413.119 291.104 418.109 285.443 421.75L285.443 421.75L274.68 428.682C274.68 428.682 274.68 428.682 274.68 428.682C268.102 432.914 260.445 435.171 252.628 435.171H136.637C130.56 435.171 124.56 433.81 119.074 431.19L111.471 427.559C111.471 427.559 111.471 427.559 111.471 427.559C104.248 424.104 98.1986 418.605 94.0862 411.74L93.6573 411.997L94.0862 411.74L37.6065 317.498C37.6064 317.498 37.6064 317.498 37.6063 317.498C33.8191 311.173 31.8127 303.93 31.8127 296.557V278.87C31.8127 271.904 33.6005 265.051 37.0109 258.969L37.0111 258.969L89.0975 165.947C92.5205 159.84 97.4559 154.718 103.436 151.067C103.436 151.067 103.436 151.067 103.437 151.067L117.665 142.393L356.982 279.326ZM125.574 286.612C125.574 325.184 156.841 356.456 195.412 356.456C233.985 356.456 265.257 325.184 265.257 286.612C265.257 248.046 233.985 216.774 195.412 216.774C156.841 216.774 125.574 248.046 125.574 286.612Z" fill="url(#paint12_radial_13_13)"/>
<path d="M356.982 279.326C349.797 281.097 337.808 282.944 324.011 279.577C293.264 272.082 278.972 244.917 276.107 239.468C264.828 218.047 266.018 195.776 270.236 178.521C274.173 162.412 280.757 150.632 282.362 147.91L262.181 136.435H138.877C131.391 136.435 124.054 138.498 117.665 142.392L356.982 279.326ZM356.982 279.326V291.354C356.982 298.701 355.111 305.922 351.554 312.348L299.029 407.23C295.769 413.119 291.104 418.109 285.443 421.75L285.443 421.75L274.68 428.682C274.68 428.682 274.68 428.682 274.68 428.682C268.102 432.914 260.445 435.171 252.628 435.171H136.637C130.56 435.171 124.56 433.81 119.074 431.19L111.471 427.559C111.471 427.559 111.471 427.559 111.471 427.559C104.248 424.104 98.1986 418.605 94.0862 411.74L93.6573 411.997L94.0862 411.74L37.6065 317.498C37.6064 317.498 37.6064 317.498 37.6063 317.498C33.8191 311.173 31.8127 303.93 31.8127 296.557V278.87C31.8127 271.904 33.6005 265.051 37.0109 258.969L37.0111 258.969L89.0975 165.947C92.5205 159.84 97.4559 154.718 103.436 151.067C103.436 151.067 103.436 151.067 103.437 151.067L117.665 142.393L356.982 279.326ZM125.574 286.612C125.574 325.184 156.841 356.456 195.412 356.456C233.985 356.456 265.257 325.184 265.257 286.612C265.257 248.046 233.985 216.774 195.412 216.774C156.841 216.774 125.574 248.046 125.574 286.612Z" stroke="url(#paint13_radial_13_13)"/>
<path d="M356.982 279.326C349.797 281.097 337.808 282.944 324.011 279.577C293.264 272.082 278.972 244.917 276.107 239.468C264.828 218.047 266.018 195.776 270.236 178.521C274.173 162.412 280.757 150.632 282.362 147.91L262.181 136.435H138.877C131.391 136.435 124.054 138.498 117.665 142.392L356.982 279.326ZM356.982 279.326V291.354C356.982 298.701 355.111 305.922 351.554 312.348L299.029 407.23C295.769 413.119 291.104 418.109 285.443 421.75L285.443 421.75L274.68 428.682C274.68 428.682 274.68 428.682 274.68 428.682C268.102 432.914 260.445 435.171 252.628 435.171H136.637C130.56 435.171 124.56 433.81 119.074 431.19L111.471 427.559C111.471 427.559 111.471 427.559 111.471 427.559C104.248 424.104 98.1986 418.605 94.0862 411.74L93.6573 411.997L94.0862 411.74L37.6065 317.498C37.6064 317.498 37.6064 317.498 37.6063 317.498C33.8191 311.173 31.8127 303.93 31.8127 296.557V278.87C31.8127 271.904 33.6005 265.051 37.0109 258.969L37.0111 258.969L89.0975 165.947C92.5205 159.84 97.4559 154.718 103.436 151.067C103.436 151.067 103.436 151.067 103.437 151.067L117.665 142.393L356.982 279.326ZM125.574 286.612C125.574 325.184 156.841 356.456 195.412 356.456C233.985 356.456 265.257 325.184 265.257 286.612C265.257 248.046 233.985 216.774 195.412 216.774C156.841 216.774 125.574 248.046 125.574 286.612Z" stroke="url(#paint14_radial_13_13)"/>
<path d="M356.982 279.326C349.797 281.097 337.808 282.944 324.011 279.577C293.264 272.082 278.972 244.917 276.107 239.468C264.828 218.047 266.018 195.776 270.236 178.521C274.173 162.412 280.757 150.632 282.362 147.91L262.181 136.435H138.877C131.391 136.435 124.054 138.498 117.665 142.392L356.982 279.326ZM356.982 279.326V291.354C356.982 298.701 355.111 305.922 351.554 312.348L299.029 407.23C295.769 413.119 291.104 418.109 285.443 421.75L285.443 421.75L274.68 428.682C274.68 428.682 274.68 428.682 274.68 428.682C268.102 432.914 260.445 435.171 252.628 435.171H136.637C130.56 435.171 124.56 433.81 119.074 431.19L111.471 427.559C111.471 427.559 111.471 427.559 111.471 427.559C104.248 424.104 98.1986 418.605 94.0862 411.74L93.6573 411.997L94.0862 411.74L37.6065 317.498C37.6064 317.498 37.6064 317.498 37.6063 317.498C33.8191 311.173 31.8127 303.93 31.8127 296.557V278.87C31.8127 271.904 33.6005 265.051 37.0109 258.969L37.0111 258.969L89.0975 165.947C92.5205 159.84 97.4559 154.718 103.436 151.067C103.436 151.067 103.436 151.067 103.437 151.067L117.665 142.393L356.982 279.326ZM125.574 286.612C125.574 325.184 156.841 356.456 195.412 356.456C233.985 356.456 265.257 325.184 265.257 286.612C265.257 248.046 233.985 216.774 195.412 216.774C156.841 216.774 125.574 248.046 125.574 286.612Z" stroke="url(#paint15_radial_13_13)"/>
<defs>
<linearGradient id="paint0_linear_13_13" x1="205.744" y1="0" x2="205.744" y2="75.2518" gradientUnits="userSpaceOnUse">
<stop stop-color="white"/>
<stop offset="1" stop-color="white" stop-opacity="0"/>
</linearGradient>
<linearGradient id="paint1_linear_13_13" x1="183.983" y1="7.84993" x2="243.348" y2="54.4589" gradientUnits="userSpaceOnUse">
<stop stop-color="#ED3A86"/>
<stop offset="0.988235" stop-color="#712E42"/>
<stop offset="1" stop-color="#712E42"/>
</linearGradient>
<radialGradient id="paint2_radial_13_13" cx="0" cy="0" r="1" gradientUnits="userSpaceOnUse" gradientTransform="translate(177.5 19.7909) rotate(47.6241) scale(56.4048 48.7602)">
<stop offset="0.0200444" stop-color="#FFB7D5"/>
<stop offset="1" stop-color="#ED3A86" stop-opacity="0"/>
</radialGradient>
<linearGradient id="paint3_linear_13_13" x1="131.154" y1="112.553" x2="131.154" y2="421.858" gradientUnits="userSpaceOnUse">
<stop stop-color="white"/>
<stop offset="1" stop-color="white" stop-opacity="0"/>
</linearGradient>
<linearGradient id="paint4_linear_13_13" x1="-0.00641672" y1="267.204" x2="262.314" y2="267.204" gradientUnits="userSpaceOnUse">
<stop stop-color="#ED3A86"/>
<stop offset="0.988235" stop-color="#712E42"/>
<stop offset="1" stop-color="#712E42"/>
</linearGradient>
<linearGradient id="paint5_linear_13_13" x1="48.5" y1="171.791" x2="115.5" y2="42.7909" gradientUnits="userSpaceOnUse">
<stop offset="0.12415" stop-color="white" stop-opacity="0"/>
<stop offset="0.3" stop-color="white"/>
<stop offset="0.55219" stop-color="white" stop-opacity="0.075"/>
</linearGradient>
<radialGradient id="paint6_radial_13_13" cx="0" cy="0" r="1" gradientUnits="userSpaceOnUse" gradientTransform="translate(76 118.791) rotate(42.8434) scale(169.118 149.677)">
<stop offset="0.0200444" stop-color="#FFB7D5"/>
<stop offset="1" stop-color="#ED3A86" stop-opacity="0"/>
</radialGradient>
<linearGradient id="paint7_linear_13_13" x1="312.234" y1="226.019" x2="312.234" y2="293.122" gradientUnits="userSpaceOnUse">
<stop stop-color="white"/>
<stop offset="1" stop-color="white" stop-opacity="0"/>
</linearGradient>
<linearGradient id="paint8_linear_13_13" x1="266.989" y1="259.571" x2="357.479" y2="259.571" gradientUnits="userSpaceOnUse">
<stop stop-color="#ED3A86"/>
<stop offset="0.988235" stop-color="#712E42"/>
<stop offset="1" stop-color="#712E42"/>
</linearGradient>
<linearGradient id="paint9_linear_13_13" x1="121.598" y1="289.767" x2="271.057" y2="289.767" gradientUnits="userSpaceOnUse">
<stop stop-color="#ED3A86"/>
<stop offset="0.988235" stop-color="#712E42"/>
<stop offset="1" stop-color="#712E42"/>
</linearGradient>
<linearGradient id="paint10_linear_13_13" x1="71.4999" y1="289.291" x2="235.806" y2="105.149" gradientUnits="userSpaceOnUse">
<stop offset="0.12415" stop-color="white" stop-opacity="0"/>
<stop offset="0.3" stop-color="white"/>
<stop offset="0.55219" stop-color="white" stop-opacity="0.075"/>
</linearGradient>
<linearGradient id="paint11_linear_13_13" x1="31.3048" y1="285.802" x2="442.5" y2="258.5" gradientUnits="userSpaceOnUse">
<stop offset="0.149306" stop-color="#ED3A86"/>
<stop offset="0.988235" stop-color="#712E42"/>
<stop offset="1" stop-color="#712E42"/>
</linearGradient>
<radialGradient id="paint12_radial_13_13" cx="0" cy="0" r="1" gradientUnits="userSpaceOnUse" gradientTransform="translate(293 238.5) rotate(-36.091) scale(132.412 144.09)">
<stop stop-color="#ED3A86"/>
<stop offset="1" stop-color="#ED3A86" stop-opacity="0"/>
</radialGradient>
<radialGradient id="paint13_radial_13_13" cx="0" cy="0" r="1" gradientUnits="userSpaceOnUse" gradientTransform="translate(312.5 188.791) rotate(122.792) scale(98.2556 106.921)">
<stop offset="0.0200444" stop-color="#FFB7D5"/>
<stop offset="1" stop-color="#ED3A86" stop-opacity="0"/>
</radialGradient>
<radialGradient id="paint14_radial_13_13" cx="0" cy="0" r="1" gradientUnits="userSpaceOnUse" gradientTransform="translate(371 372.291) rotate(-149.036) scale(78.7179 85.6599)">
<stop offset="0.0200444" stop-color="#FFB7D5"/>
<stop offset="1" stop-color="#ED3A86" stop-opacity="0"/>
</radialGradient>
<radialGradient id="paint15_radial_13_13" cx="0" cy="0" r="1" gradientUnits="userSpaceOnUse" gradientTransform="translate(144.5 255.291) rotate(19.8769) scale(69.1177 75.2131)">
<stop offset="0.0200444" stop-color="#FFB7D5"/>
<stop offset="1" stop-color="#ED3A86" stop-opacity="0"/>
</radialGradient>
</defs>
</svg>
