<svg width="32" height="30" viewBox="0 0 32 30" fill="none" xmlns="http://www.w3.org/2000/svg">
<path d="M29.6554 0.441254H2.34469C1.05181 0.441254 0 1.49313 0 2.78595V18.1452V20.0463V22.8401C0 24.1329 1.05181 25.1848 2.34469 25.1848H10.7511L10.3928 27.6577H8.58577V29.5587H10.1174H21.8825H23.4142V27.6577H21.6071L21.2488 25.1848H29.6552C30.9481 25.1848 31.9999 24.1329 31.9999 22.8401V20.0463V18.1452V2.78595C32.0001 1.49313 30.9482 0.441254 29.6554 0.441254ZM12.3138 27.6576L12.672 25.1847H19.3279L19.6862 27.6576H12.3138ZM30.099 22.8401C30.099 23.0847 29.8999 23.2837 29.6554 23.2837H20.9735H11.0266H2.34469C2.10013 23.2837 1.90113 23.0846 1.90113 22.8401V20.0463H30.0991V22.8401H30.099ZM30.099 18.1452H1.90107V2.78595C1.90107 2.54138 2.10013 2.34238 2.34463 2.34238H29.6554C29.8999 2.34238 30.0989 2.54145 30.0989 2.78595V18.1452H30.099Z" fill="white"/>
</svg>
