<svg width="27" height="27" viewBox="0 0 27 27" fill="none" xmlns="http://www.w3.org/2000/svg">
<path d="M26.0177 20.4692L21.7551 16.2118C21.2651 15.7217 19.5805 14.7314 18.1 16.2118L15.8896 18.4222C15.7416 18.5703 15.5017 18.6468 15.1699 18.6468C14.1897 18.6468 12.4439 17.8964 10.7695 16.2322C9.73828 15.201 8.93173 14.0013 8.56422 12.9395C8.27323 12.0972 8.27837 11.4132 8.57441 11.1171L10.7848 8.90669C11.7904 7.90106 11.7904 6.25724 10.7848 5.25161L6.53252 0.983993C6.04245 0.493932 4.38844 -0.527014 2.87743 0.983993L1.47872 2.38279C-0.185484 4.04699 -0.45602 6.84442 0.723173 10.2443C1.83604 13.4399 4.10259 16.8652 7.12468 19.8822C11.5097 24.2672 16.6759 26.9983 20.5964 26.9983C22.2606 26.9983 23.6542 26.4878 24.619 25.523L26.0177 24.1243C27.0234 23.1187 27.0234 21.4749 26.0177 20.4692ZM24.7925 22.9042L23.3938 24.3029C22.7455 24.9512 21.8011 25.2779 20.5861 25.2779C17.1557 25.2779 12.3469 22.6847 8.33451 18.662C5.49625 15.8238 3.37263 12.6332 2.34655 9.68261C1.40725 6.97195 1.53486 4.75642 2.69368 3.5976L4.0924 2.19888C4.58246 1.70882 5.14912 2.0355 5.3125 2.19888L9.56993 6.45631C9.90687 6.79325 9.90687 7.33946 9.56993 7.67641L7.35952 9.88689C6.55802 10.6883 6.41509 11.9697 6.94093 13.4909C7.40035 14.8079 8.32432 16.2118 9.55461 17.4369C11.3617 19.2441 13.5109 20.362 15.1699 20.362C15.9612 20.362 16.6299 20.1118 17.1047 19.6371L19.3151 17.4267C19.6367 17.1051 20.2084 17.1051 20.5352 17.4267L24.7926 21.6841C25.1295 22.0262 25.1295 22.5673 24.7925 22.9042Z" fill="white"/>
</svg>
