<svg width="45" height="28" viewBox="0 0 45 28" fill="none" xmlns="http://www.w3.org/2000/svg">
<path d="M23.188 9.66667C23.0017 9.67244 22.8225 9.75045 22.6906 9.88622L18.9095 13.6851L16.5803 11.3451C15.9282 10.6604 14.8747 11.7178 15.5555 12.3736L18.3978 15.2307C18.6802 15.5152 19.1388 15.5152 19.4226 15.2307L23.7155 10.9161C24.1885 10.4539 23.8402 9.66667 23.1894 9.66667H23.188ZM1.71667 15.4444H6.01667C6.4137 15.4444 6.73333 15.7666 6.73333 16.1667C6.73333 16.5668 6.4137 16.8889 6.01667 16.8889H1.71667C1.31963 16.8889 1 16.5668 1 16.1667C1 15.7666 1.31963 15.4444 1.71667 15.4444ZM1.71667 9.66667H6.01667C6.4137 9.66667 6.73333 9.98878 6.73333 10.3889C6.73333 10.789 6.4137 11.1111 6.01667 11.1111H1.71667C1.31963 11.1111 1 10.789 1 10.3889C1 9.98878 1.31963 9.66667 1.71667 9.66667ZM1.71667 3.88889H6.01667C6.4137 3.88889 6.73333 4.211 6.73333 4.61111C6.73333 5.01122 6.4137 5.33333 6.01667 5.33333H1.71667C1.31963 5.33333 1 5.01122 1 4.61111C1 4.211 1.31963 3.88889 1.71667 3.88889ZM36.1167 19.7778C34.1458 19.7778 32.5333 21.4028 32.5333 23.3889C32.5333 25.375 34.1458 27 36.1167 27C38.0875 27 39.7 25.375 39.7 23.3889C39.7 21.4028 38.0875 19.7778 36.1167 19.7778ZM36.1167 21.2222C37.3121 21.2222 38.2667 22.1842 38.2667 23.3889C38.2667 24.5936 37.3121 25.5556 36.1167 25.5556C34.9213 25.5556 33.9667 24.5936 33.9667 23.3889C33.9667 22.1842 34.9213 21.2222 36.1167 21.2222ZM17.4833 19.7778C15.5125 19.7778 13.9 21.4028 13.9 23.3889C13.9 25.375 15.5125 27 17.4833 27C19.4542 27 21.0667 25.375 21.0667 23.3889C21.0667 21.4028 19.4542 19.7778 17.4833 19.7778ZM17.4833 21.2222C18.6787 21.2222 19.6333 22.1842 19.6333 23.3889C19.6333 24.5936 18.6787 25.5556 17.4833 25.5556C16.2879 25.5556 15.3333 24.5936 15.3333 23.3889C15.3333 22.1842 16.2879 21.2222 17.4833 21.2222ZM10.3167 1C9.13847 1 8.16667 1.97933 8.16667 3.16667V19.0556C8.16667 20.2429 9.13847 21.2222 10.3167 21.2222H13.1833C14.1523 21.2367 14.1523 19.7633 13.1833 19.7778H10.3167C9.90673 19.7778 9.6 19.4687 9.6 19.0556V3.16667C9.6 2.75356 9.90673 2.44444 10.3167 2.44444H28.95C29.3599 2.44444 29.6667 2.75356 29.6667 3.16667V19.7778H21.7833C20.8373 19.7778 20.8545 21.2367 21.7833 21.2222H31.8167C32.7627 21.2222 32.7541 19.7778 31.8167 19.7778H31.1V6.77778H37.1587L42.5667 15.2942V19.0556C42.5667 19.4687 42.2599 19.7778 41.85 19.7778H40.4167C39.4793 19.7778 39.4793 21.2222 40.4167 21.2222H41.85C43.0282 21.2222 44 20.2429 44 19.0556V15.0833C44 14.9461 43.9613 14.8089 43.8882 14.6933L38.1549 5.66556C38.023 5.459 37.7965 5.33333 37.55 5.33333H31.1V3.16667C31.1 1.97933 30.1282 1 28.95 1H10.3167Z" fill="white" stroke="white"/>
</svg>
