<?xml version="1.0" encoding="utf-8"?>
<!-- Generator: Adobe Illustrator 25.4.1, SVG Export Plug-In . SVG Version: 6.00 Build 0)  -->
<svg version="1.1" id="Слой_1" xmlns="http://www.w3.org/2000/svg" xmlns:xlink="http://www.w3.org/1999/xlink" x="0px" y="0px"
	 viewBox="0 0 645.33 186.67" style="enable-background:new 0 0 645.33 186.67;" xml:space="preserve">
<style type="text/css">
	.st0{fill:url(#SVGID_1_);}
	.st1{fill:url(#SVGID_00000013907558205815759720000016764319171013450383_);}
	.st2{fill:url(#SVGID_00000150803569791620936680000009540451289692343186_);}
	.st3{fill:url(#SVGID_00000142881085195313625380000000193963570404249984_);}
	.st4{fill:#FFFFFF;}
	.st5{fill:url(#SVGID_00000127756817235721380870000007063995152267032233_);}
	.st6{fill:url(#SVGID_00000093177799713273678220000000908112190908275886_);}
</style>
<g>
	<linearGradient id="SVGID_1_" gradientUnits="userSpaceOnUse" x1="71.1335" y1="23.5732" x2="98.4148" y2="23.5732">
		<stop  offset="0" style="stop-color:#E51878"/>
		<stop  offset="0.9944" style="stop-color:#721932"/>
	</linearGradient>
	<path class="st0" d="M98.41,9.8c0,0,1,29.25-27.24,27.47C71.17,37.27,69.05,9.8,98.41,9.8z"/>
	
		<linearGradient id="SVGID_00000152229512350894331290000017263510877231956372_" gradientUnits="userSpaceOnUse" x1="9.4612" y1="107.6103" x2="105.4816" y2="107.6103">
		<stop  offset="0" style="stop-color:#E51878"/>
		<stop  offset="0.9944" style="stop-color:#721932"/>
	</linearGradient>
	<path style="fill:url(#SVGID_00000152229512350894331290000017263510877231956372_);" d="M105.48,59.56L90.59,51H50.77
		c-1.32,0-2.63,0.3-3.82,0.88l-7.87,3.84c-1.55,0.76-2.85,1.96-3.71,3.45l-24.73,42.57c-0.77,1.33-1.18,2.84-1.18,4.38v6.16
		c0,1.41,0.34,2.79,0.99,4.04l20.45,39.12l15.87,8.79l-22.72-43.48l1.34-13.13l25.31-40.9l12.65-3.57l40.49-0.89L105.48,59.56z"/>
	
		<linearGradient id="SVGID_00000040565109078888488560000018152860661832375985_" gradientUnits="userSpaceOnUse" x1="107.1936" y1="104.8162" x2="140.3169" y2="104.8162">
		<stop  offset="0" style="stop-color:#E51878"/>
		<stop  offset="0.9944" style="stop-color:#721932"/>
	</linearGradient>
	<path style="fill:url(#SVGID_00000040565109078888488560000018152860661832375985_);" d="M107.19,93.8
		c0.22,0.37,12.88-1.27,12.88-1.27l20.25,19.28l-8.49,5.28c0,0-17.42-5.36-17.42-5.58C114.41,111.29,107.19,93.8,107.19,93.8z"/>
	
		<linearGradient id="SVGID_00000072999961958209798890000017894547710928542107_" gradientUnits="userSpaceOnUse" x1="53.973" y1="115.8698" x2="108.6823" y2="115.8698">
		<stop  offset="0" style="stop-color:#E51878"/>
		<stop  offset="0.9944" style="stop-color:#721932"/>
	</linearGradient>
	<path style="fill:url(#SVGID_00000072999961958209798890000017894547710928542107_);" d="M86.02,88.29
		c0.22,0.75,4.55,16.54-5.25,26.57c-4.49,4.59-10.24,6.25-12.84,6.81c-6.35,1.38-11.56,0.09-13.96-0.67l7.03,15.97l27.35,6.48
		l18.83-10.83l1.49-20.54L98.3,92.53L86.02,88.29z"/>
	<path class="st4" d="M128.11,111.96c-11.17-2.72-16.37-12.6-17.42-14.59c-8.2-15.58,1.72-32.41,2.38-33.5l-7.59-4.32H60.3
		c-2.77,0-5.49,0.76-7.86,2.21l-5.21,3.18c-2.22,1.35-4.04,3.25-5.31,5.51l-19.07,34.05c-1.26,2.25-1.92,4.79-1.92,7.38v6.47
		c0,2.73,0.74,5.42,2.15,7.76l20.67,34.5c1.52,2.54,3.77,4.58,6.44,5.86l2.78,1.33c2.03,0.97,4.25,1.47,6.51,1.47h42.46
		c2.9,0,5.74-0.83,8.17-2.4l3.94-2.54c2.1-1.35,3.83-3.2,5.04-5.38l19.23-34.73c1.32-2.38,2.01-5.05,2.01-7.77v-4.64
		C137.74,112.47,133.27,113.22,128.11,111.96z M80.99,140.1c-14.02,0-25.38-11.36-25.38-25.38c0-14.02,11.36-25.38,25.38-25.38
		c14.02,0,25.38,11.36,25.38,25.38C106.37,128.73,95.01,140.1,80.99,140.1z"/>
	<path class="st4" d="M168.09,98.36h32.54c7.36,0,13.85,1.42,19.47,4.25c5.63,2.83,10,6.88,13.11,12.15
		c3.11,5.27,4.67,11.46,4.67,18.59c0,7.13-1.56,13.33-4.67,18.59c-3.11,5.27-7.48,9.31-13.11,12.15
		c-5.63,2.83-12.12,4.25-19.47,4.25h-32.54V98.36z M199.69,149.94c4.78,0,8.6-1.45,11.46-4.35c2.86-2.9,4.29-6.98,4.29-12.25
		c0-5.26-1.43-9.35-4.29-12.25c-2.86-2.9-6.68-4.35-11.46-4.35h-9.34v33.19H199.69z"/>
	<path class="st4" d="M282.3,115.81v18.86c-1.7-0.25-3.27-0.38-4.72-0.38c-7.29,0-10.94,3.71-10.94,11.13v22.92h-21.31v-51.58h20.28
		v5.56C269.38,117.97,274.94,115.81,282.3,115.81z"/>
	
		<linearGradient id="SVGID_00000085932132148447573820000001197713160690565255_" gradientUnits="userSpaceOnUse" x1="284.5611" y1="157.111" x2="309.4576" y2="157.111">
		<stop  offset="0" style="stop-color:#E51878"/>
		<stop  offset="0.9944" style="stop-color:#721932"/>
	</linearGradient>
	<path style="fill:url(#SVGID_00000085932132148447573820000001197713160690565255_);" d="M288.1,165.83
		c-2.36-2.29-3.54-5.23-3.54-8.82c0-3.58,1.18-6.49,3.54-8.72c2.36-2.23,5.33-3.35,8.91-3.35s6.55,1.12,8.91,3.35
		c2.36,2.23,3.54,5.14,3.54,8.72c0,3.58-1.18,6.52-3.54,8.82c-2.36,2.3-5.33,3.44-8.91,3.44S290.46,168.13,288.1,165.83z"/>
	<path class="st4" d="M364.44,101.56c4.53,2.13,8.02,5.2,10.47,9.2c2.45,4,3.68,8.66,3.68,13.99c0,5.33-1.23,10-3.68,14
		c-2.45,4-5.94,7.06-10.47,9.2c-4.53,2.13-9.84,3.2-15.94,3.2h-9.52v17.19h-22.26V98.36h31.78
		C354.6,98.36,359.91,99.42,364.44,101.56z M353.87,130.8c1.51-1.43,2.26-3.45,2.26-6.05s-0.76-4.61-2.26-6.05
		c-1.51-1.43-3.77-2.15-6.79-2.15h-8.11v16.39h8.11C350.1,132.95,352.36,132.23,353.87,130.8z"/>
	<path class="st4" d="M437.29,121.56c3.87,3.84,5.8,9.62,5.8,17.35v29.42h-21.31v-25.75c0-5.91-2.11-8.86-6.32-8.86
		c-2.39,0-4.32,0.83-5.8,2.5c-1.48,1.67-2.22,4.29-2.22,7.87v24.24h-21.31V98.36h21.31v22.54c3.96-3.39,8.8-5.09,14.52-5.09
		C428.31,115.81,433.42,117.72,437.29,121.56z"/>
	
		<linearGradient id="SVGID_00000178896213591272872530000007733226907210284218_" gradientUnits="userSpaceOnUse" x1="450.5372" y1="142.5407" x2="510.5159" y2="142.5407">
		<stop  offset="0" style="stop-color:#E51878"/>
		<stop  offset="0.9944" style="stop-color:#721932"/>
	</linearGradient>
	<path style="fill:url(#SVGID_00000178896213591272872530000007733226907210284218_);" d="M465.11,165.83
		c-4.56-2.29-8.13-5.47-10.7-9.52c-2.58-4.06-3.87-8.66-3.87-13.82c0-5.15,1.29-9.76,3.87-13.82c2.58-4.06,6.14-7.21,10.7-9.48
		c4.56-2.26,9.7-3.4,15.42-3.4c5.78,0,10.95,1.13,15.51,3.4c4.56,2.26,8.11,5.42,10.66,9.48c2.55,4.06,3.82,8.66,3.82,13.82
		c0,5.16-1.27,9.76-3.82,13.82c-2.55,4.06-6.1,7.23-10.66,9.52c-4.56,2.3-9.73,3.44-15.51,3.44
		C474.8,169.28,469.67,168.13,465.11,165.83z M486.56,149.99c1.57-1.79,2.36-4.29,2.36-7.5c0-3.21-0.79-5.69-2.36-7.45
		c-1.57-1.76-3.58-2.64-6.04-2.64c-2.45,0-4.47,0.88-6.04,2.64c-1.57,1.76-2.36,4.24-2.36,7.45c0,3.21,0.79,5.71,2.36,7.5
		c1.57,1.79,3.58,2.69,6.04,2.69C482.98,152.68,484.99,151.78,486.56,149.99z"/>
	<path class="st4" d="M568.37,121.56c3.87,3.84,5.8,9.62,5.8,17.35v29.42h-21.31v-25.75c0-5.91-2.11-8.86-6.32-8.86
		c-2.39,0-4.32,0.83-5.8,2.5c-1.48,1.67-2.22,4.29-2.22,7.87v24.24h-21.31v-51.58h20.28v5.09c2.01-2.01,4.34-3.52,6.98-4.53
		c2.64-1.01,5.5-1.51,8.58-1.51C559.4,115.81,564.51,117.72,568.37,121.56z"/>
	<path class="st4" d="M638.96,147.49h-35.84c0.75,1.95,2.01,3.44,3.77,4.48c1.76,1.04,3.96,1.56,6.6,1.56
		c2.26,0,4.16-0.28,5.71-0.85c1.54-0.57,3.22-1.54,5.05-2.92l11.13,11.22c-5.03,5.53-12.54,8.3-22.54,8.3
		c-6.22,0-11.69-1.15-16.41-3.44c-4.72-2.29-8.36-5.49-10.94-9.57c-2.58-4.09-3.87-8.68-3.87-13.77c0-5.15,1.27-9.76,3.82-13.82
		c2.54-4.06,6.04-7.21,10.47-9.48c4.43-2.26,9.42-3.4,14.95-3.4c5.22,0,9.98,1.04,14.29,3.11c4.31,2.07,7.73,5.13,10.28,9.15
		c2.55,4.02,3.82,8.83,3.82,14.43C639.24,142.81,639.15,144.47,638.96,147.49z M605.58,132.12c-1.45,1.19-2.39,2.89-2.83,5.09h16.6
		c-0.44-2.14-1.38-3.82-2.83-5.05c-1.45-1.23-3.27-1.84-5.47-1.84C608.84,130.33,607.02,130.93,605.58,132.12z"/>
</g>
</svg>
