<svg width="18.000000" height="19.000000" viewBox="0 0 18 19" fill="none" xmlns="http://www.w3.org/2000/svg" xmlns:xlink="http://www.w3.org/1999/xlink">
	<desc>
			Created with Pixso.
	</desc>
	<defs/>
	<path id="coolicon" d="M8.49 19C6.03 19 5.74 18.98 4.78 18.94C4.03 18.91 3.3 18.75 2.6 18.46C1.39 17.97 0.44 16.96 -0.03 15.69C-0.29 14.95 -0.43 14.17 -0.45 13.39C-0.5 12.38 -0.5 12.05 -0.5 9.48C-0.5 6.88 -0.49 6.57 -0.45 5.57C-0.43 4.78 -0.29 4 -0.03 3.27C0.44 1.99 1.39 0.99 2.6 0.49C3.3 0.22 4.04 0.07 4.78 0.05C5.74 0 6.05 0 8.49 0C10.97 0 11.25 0.01 12.2 0.05C12.95 0.07 13.69 0.22 14.39 0.49C15.59 0.99 16.55 1.99 17.02 3.27C17.29 4.01 17.43 4.8 17.44 5.6C17.5 6.61 17.5 6.94 17.5 9.51C17.5 12.08 17.48 12.42 17.44 13.42C17.42 14.21 17.28 14.99 17.02 15.72C16.55 17 15.59 18 14.39 18.5C13.69 18.77 12.95 18.92 12.2 18.94C11.25 19 10.93 19 8.49 19ZM8.46 1.66C6.01 1.66 5.76 1.68 4.8 1.72C4.23 1.73 3.67 1.84 3.13 2.05C2.35 2.37 1.72 3.02 1.42 3.85C1.22 4.42 1.11 5.02 1.11 5.63C1.05 6.65 1.05 6.92 1.05 9.48C1.05 12 1.06 12.31 1.11 13.33C1.12 13.93 1.22 14.52 1.42 15.08C1.72 15.91 2.35 16.57 3.13 16.89C3.67 17.1 4.23 17.21 4.8 17.21C5.77 17.27 6.03 17.27 8.46 17.27C10.91 17.27 11.16 17.26 12.11 17.21C12.68 17.21 13.24 17.1 13.78 16.89C14.56 16.57 15.18 15.91 15.49 15.09C15.69 14.52 15.79 13.92 15.8 13.31L15.81 13.31C15.85 12.3 15.85 12.03 15.85 9.46C15.85 6.89 15.84 6.61 15.8 5.61C15.79 5.01 15.68 4.41 15.49 3.85C15.18 3.02 14.56 2.37 13.78 2.05C13.24 1.84 12.68 1.73 12.11 1.72C11.14 1.66 10.89 1.66 8.46 1.66ZM8.49 14.34C6.62 14.34 4.94 13.16 4.22 11.34C3.5 9.52 3.9 7.42 5.22 6.03C6.54 4.64 8.53 4.22 10.25 4.97C11.98 5.73 13.11 7.5 13.11 9.47C13.1 12.16 11.04 14.34 8.49 14.34ZM8.49 6.31C6.83 6.31 5.49 7.72 5.49 9.47C5.49 11.21 6.83 12.63 8.49 12.63C10.15 12.63 11.49 11.21 11.49 9.47C11.48 7.72 10.14 6.31 8.49 6.31ZM13.29 5.56C12.69 5.55 12.21 5.05 12.21 4.42C12.22 3.79 12.7 3.29 13.29 3.29C13.89 3.29 14.37 3.79 14.37 4.42C14.37 4.72 14.26 5.01 14.05 5.23C13.85 5.44 13.57 5.56 13.29 5.56Z" fill="#FFFFFF" fill-opacity="1.000000" fill-rule="nonzero"/>
</svg>
