<svg width="18.000000" height="18.000000" viewBox="0 0 18 18" fill="none" xmlns="http://www.w3.org/2000/svg" xmlns:xlink="http://www.w3.org/1999/xlink">
	<desc>
			Created with Pixso.
	</desc>
	<defs/>
	<path id="wa" d="M-0.17 16.92L1.06 13.7C-4.9 2.17 7.61 -3.89 13.89 1.46C21.93 8.12 15.7 21.93 3.35 16.09C3.32 16.07 3.15 15.98 3.18 15.97C4.43 15.57 10.05 13.98 11.11 13.56C11.16 13.54 11.64 13.53 11.95 13.4C13.03 12.94 13.47 12.22 13.77 11.32C13.93 10.85 13.75 10.83 13.33 10.64L11.57 9.87C11.14 9.68 10.89 9.48 10.61 9.83L10.06 10.66C9.89 10.88 9.6 11.1 9.22 10.96C7.59 10.4 6.88 9.79 5.89 8.26C5.71 7.99 5.72 7.52 5.93 7.3L6.61 6.64C6.79 6.48 6.79 6.22 6.7 6.01L5.88 4.07C5.77 3.64 5.43 3.42 5.05 3.52C3.35 3.93 2.58 5.27 3.04 7.29C4.21 10.27 6.65 12.69 11.11 13.56C11.11 13.56 11.11 13.56 11.1 13.56C11.08 13.57 11.05 13.58 10.99 13.6C9.89 14.02 1.13 16.57 -0.17 16.92Z" fill="#FFFFFF" fill-opacity="1.000000" fill-rule="evenodd"/>
</svg>
